<svg width="100" height="100" viewBox="0 0 100 100" fill="none" xmlns="http://www.w3.org/2000/svg">
  <path d="M50 0C77.6142 0 100 22.3858 100 50C100 77.6142 77.6142 100 50 100C22.3858 100 0 77.6142 0 50C0 22.3858 22.3858 0 50 0Z" fill="#ffffff" fill-opacity="0.2"/>
  <path d="M50 0C69.2 0 85.8 11.2 94.4 27.6H55.6C51.6 24.8 46 23.2 50 23.2C44.8 23.2 40.4 24.8 36.4 27.6H5.6C14.2 11.2 30.8 0 50 0Z" fill="#ffffff" fill-opacity="0.3"/>
  <path d="M94.4 27.6C98 34.4 100 42 100 50C100 58 98 65.6 94.4 72.4H55.6C59.6 69.6 62.4 65.2 63.2 60H36.8C37.6 65.2 40.4 69.6 44.4 72.4H5.6C2 65.6 0 58 0 50C0 42 2 34.4 5.6 27.6H44.4C40.4 30.4 37.6 34.8 36.8 40H63.2C62.4 34.8 59.6 30.4 55.6 27.6H94.4Z" fill="#ffffff" fill-opacity="0.3"/>
  <circle cx="50" cy="50" r="10" stroke="#ffffff" stroke-opacity="0.4" stroke-width="4" fill="none"/>
</svg>